# xmcd
#
# Track frame offsets:
#	182
#	14690
#	33030
#	49630
#	64582
#	85167
#	102702
#	121510
#	137852
#	151092
#	170302
#	180950
#	200950
#	217825
#
# Disc length: 3105 seconds
#
# Revision: 0
# Processed by: cddbd v1.5PL3 Copyright (c) Steve Scherf et al.
# Submitted via: dBpowerAMP V4.0
#
DISCID=b10c1f0e
DTITLE=Vários - Sertanejo de Ouro Vol.2
DYEAR=1994
DGENRE=Sertanejo
TTITLE0=Leão Domado
TTITLE1=Faz de Conta (L'Italiano)
TTITLE2=Viola e Paixão
TTITLE3=Preciso Te Encontrar
TTITLE4=Paloma
TTITLE5=Da Água Pro Vinho
TTITLE6=Não Dá Para Fazer Amor Sem Ter Você
TTITLE7=Champagne
TTITLE8=Sempre Seu Homem
TTITLE9=Uma História Sem Fim
TTITLE10=Ladrão de Mulher
TTITLE11=Pedindo Amor
TTITLE12=Negrinho Parafuso
TTITLE13=Duas Camisas
EXTD=
EXTT0=
EXTT1=
EXTT2=
EXTT3=
EXTT4=
EXTT5=
EXTT6=
EXTT7=
EXTT8=
EXTT9=
EXTT10=
EXTT11=
EXTT12=
EXTT13=
PLAYORDER=
